# xmcd
#
# Track frame offsets:
#	150
#	14601
#	39469
#	69440
#	86511
#	108721
#	123749
#	158381
#	173459
#	208935
#	222874
#	244821
#	260951
#	295334
#	311794
#
# Disc length: 4586 seconds
#
# Revision: 0
# Processed by: cddbd v1.4PL0 Copyright (c) Steve Scherf et al.
# Submitted via: EasyCDDAExtractor 5.0.5.1
#
DISCID=e011e80f
DTITLE=Various Artist - TOCO INTERNATIONAL PROMO MUSIC SERVICE MARZEC 2003
DYEAR=2003
DGENRE=Acapella
TTITLE0=BENNY BENASSI  - SATISFACTION(RADIO EDIT)
TTITLE1=BENNY BENASSI  - SATISFACTION(DJ.ICON REMIX)
TTITLE2=BENNY BENASSI  - SATISFACTION(ISAK ORIGINAL MIX)
TTITLE3=KELVIN  - DANCE 4 ME BABY(RADIO EDIT)
TTITLE4=KELVIN  - DANCE 4 ME BABY(EXTENTED MIX)
TTITLE5=SVEN VAN KRACHTEN - LET LOVE DECIDE(RADIO VER)
TTITLE6=SVEN VAN KRACHTEN - LET LOVE DECIDE(EXTENTED TRANCE VER)
TTITLE7=DARREN TATE and JONO GRANT - LET THE LIGHT SHINE IN(SHINE)(RADIO 1 EDIT)
TTITLE8=DARREN TATE and JONO GRANT - LET THE LIGHT SHINE IN(SHINE)(12 INCH VOCAL
TTITLE8=)
TTITLE9=FROGGY MIX  - NO NAGGING (ZEN RADIO MIX)
TTITLE10=FROGGY MIX   - NO NAGGING (ZEN CLUB MIX) 
TTITLE11=SECOND RUN  - SEASONS IN THE SUN(RADIO EDIT)
TTITLE12=SECOND RUN  - SEASONS IN THE SUN(CLUB MIX)
TTITLE13=BLAKKERS  - BACK FOR GOOD(RADIO EDIT)
TTITLE14=BLAKKERS  - BACK FOR GOOD(EXTENTED VER)
EXTD=
EXTT0=
EXTT1=
EXTT2=
EXTT3=
EXTT4=
EXTT5=
EXTT6=
EXTT7=
EXTT8=
EXTT9=
EXTT10=
EXTT11=
EXTT12=
EXTT13=
EXTT14=
PLAYORDER=
